<?xml version="1.0" encoding="UTF-8" standalone="no"?>
<!-- Generator: Adobe Illustrator 23.0.3, SVG Export Plug-In . SVG Version: 6.00 Build 0)  -->

<svg
   version="1.1"
   id="Icons"
   x="0px"
   y="0px"
   viewBox="0 0 27.615839 23.925484"
   xml:space="preserve"
   width="27.615839"
   height="23.925484"
   xmlns="http://www.w3.org/2000/svg"
   xmlns:svg="http://www.w3.org/2000/svg"><defs
   id="defs19" />
<g
   id="g14"
   style="fill:#0a030f;fill-opacity:0.75"
   transform="translate(-2,-4.0745166)">
	<path
   d="M 29.5,13.1 C 29.3,11.9 28.6,10.9 27.5,10.2 25.7,9 24.2,7.3 23.2,5.4 L 22.8,4.6 C 22.6,4.2 22.1,4 21.7,4.1 21.3,4.1 21,4.5 21,5 V 20.8 C 20.2,20.3 19.1,20 18,20 c -2.8,0 -5,1.8 -5,4 0,2.2 2.2,4 5,4 2.8,0 5,-1.8 5,-4 V 8.6 c 1,1.2 2.1,2.3 3.4,3.2 0.6,0.4 1,1 1.1,1.7 0.1,0.7 0,1.4 -0.4,2 -0.3,0.5 -0.2,1.1 0.3,1.4 0.5,0.3 1.1,0.2 1.4,-0.3 0.7,-1.1 1,-2.3 0.7,-3.5 z"
   id="path2"
   style="fill:#0a030f;fill-opacity:0.75" />
	<path
   d="M 10,25 H 3 c -0.6,0 -1,0.4 -1,1 0,0.6 0.4,1 1,1 h 7 c 0.6,0 1,-0.4 1,-1 0,-0.6 -0.4,-1 -1,-1 z"
   id="path4"
   style="fill:#0a030f;fill-opacity:0.75" />
	<path
   d="M 10,20 H 3 c -0.6,0 -1,0.4 -1,1 0,0.6 0.4,1 1,1 h 7 c 0.6,0 1,-0.4 1,-1 0,-0.6 -0.4,-1 -1,-1 z"
   id="path6"
   style="fill:#0a030f;fill-opacity:0.75" />
	<path
   d="m 3,17 h 14 c 0.6,0 1,-0.4 1,-1 0,-0.6 -0.4,-1 -1,-1 H 3 c -0.6,0 -1,0.4 -1,1 0,0.6 0.4,1 1,1 z"
   id="path8"
   style="fill:#0a030f;fill-opacity:0.75" />
	<path
   d="m 3,12 h 14 c 0.6,0 1,-0.4 1,-1 0,-0.6 -0.4,-1 -1,-1 H 3 c -0.6,0 -1,0.4 -1,1 0,0.6 0.4,1 1,1 z"
   id="path10"
   style="fill:#0a030f;fill-opacity:0.75" />
	<path
   d="M 3,7 H 17 C 17.6,7 18,6.6 18,6 18,5.4 17.6,5 17,5 H 3 C 2.4,5 2,5.4 2,6 2,6.6 2.4,7 3,7 Z"
   id="path12"
   style="fill:#0a030f;fill-opacity:0.75" />
</g>
</svg>
