<?xml version="1.0" encoding="UTF-8"?>
<svg id="Icons" width="27.616" height="23.925" version="1.1" viewBox="0 0 27.616 23.925" xml:space="preserve" xmlns="http://www.w3.org/2000/svg">
<g transform="translate(-2 -4.0745)" fill="#0a030f" fill-opacity=".75">
	<path d="m29.5 13.1c-0.2-1.2-0.9-2.2-2-2.9-1.8-1.2-3.3-2.9-4.3-4.8l-0.4-0.8c-0.2-0.4-0.7-0.6-1.1-0.5-0.4 0-0.7 0.4-0.7 0.9v15.8c-0.8-0.5-1.9-0.8-3-0.8-2.8 0-5 1.8-5 4s2.2 4 5 4 5-1.8 5-4v-15.4c1 1.2 2.1 2.3 3.4 3.2 0.6 0.4 1 1 1.1 1.7s0 1.4-0.4 2c-0.3 0.5-0.2 1.1 0.3 1.4s1.1 0.2 1.4-0.3c0.7-1.1 1-2.3 0.7-3.5z"/>
	<path d="m10 25h-7c-0.6 0-1 0.4-1 1s0.4 1 1 1h7c0.6 0 1-0.4 1-1s-0.4-1-1-1z"/>
	<path d="m10 20h-7c-0.6 0-1 0.4-1 1s0.4 1 1 1h7c0.6 0 1-0.4 1-1s-0.4-1-1-1z"/>
	<path d="m3 17h14c0.6 0 1-0.4 1-1s-0.4-1-1-1h-14c-0.6 0-1 0.4-1 1s0.4 1 1 1z"/>
	<path d="m3 12h14c0.6 0 1-0.4 1-1s-0.4-1-1-1h-14c-0.6 0-1 0.4-1 1s0.4 1 1 1z"/>
	<path d="m3 7h14c0.6 0 1-0.4 1-1s-0.4-1-1-1h-14c-0.6 0-1 0.4-1 1s0.4 1 1 1z"/>
</g>
</svg>
